<svg width="50px" height="50px" viewBox="0 0 70 70" version="1.1" xmlns="http://www.w3.org/2000/svg" xmlns:xlink="http://www.w3.org/1999/xlink">
    <title>BK-logo</title>
    <defs></defs>
    <g id="Page-1" stroke="none" stroke-width="1" fill="none" fill-rule="evenodd">
        <g id="Desktop-Full-HD" transform="translate(-1045.000000, -505.000000)">
            <g id="BK-logo" transform="translate(1045.000000, 505.000000)">
                <rect class="logo__rect" id="Rectangle" stroke="#000000" stroke-width="5" x="2.5" y="2.5" width="65" height="65"></rect>
                <path class="logo__path" d="M0.5656,36.2326388 L14.4363224,36.2326388 C21.052292,36.2326388 25.1587559,39.2440456 25.1587559,44.2174297 C25.1587559,47.8219924 23.0142692,50.5140076 19.5465886,51.3353004 C23.835562,52.0653384 26.3906951,55.1223726 26.3906951,59.411346 C26.3906951,64.8866312 21.9648395,68.1718023 14.7557141,68.1718023 L0.5656,68.1718023 L0.5656,36.2326388 Z M5.94963042,41.0235133 L5.94963042,49.4645779 L14.1625582,49.4645779 C17.5846114,49.4645779 19.6378433,47.8676198 19.6378433,45.1756046 C19.6378433,42.4835894 17.5846114,41.0235133 14.1625582,41.0235133 L5.94963042,41.0235133 Z M5.94963042,54.2098251 L5.94963042,63.3809278 L14.1625582,63.3809278 C18.3602768,63.3809278 20.8697825,61.7383422 20.8697825,58.7269354 C20.8697825,55.898038 18.3602768,54.2098251 14.1625582,54.2098251 L5.94963042,54.2098251 Z M54.0865125,68.1718023 L60.5656,68.1718023 L47.3792882,49.8752243 L59.7443072,36.2326388 L53.4021019,36.2326388 L38.1625582,52.749749 L38.1625582,36.2326388 L32.7785278,36.2326388 L32.7785278,68.1718023 L38.1625582,68.1718023 L38.1625582,60.0501293 L43.592216,54.072943 L54.0865125,68.1718023 Z" id="BK" fill="#000000"></path>
            </g>
        </g>
    </g>
</svg>